<?xml version="1.0" encoding="UTF-8" standalone="no"?>
<svg
   xmlns:dc="http://purl.org/dc/elements/1.1/"
   xmlns:cc="http://creativecommons.org/ns#"
   xmlns:rdf="http://www.w3.org/1999/02/22-rdf-syntax-ns#"
   xmlns:svg="http://www.w3.org/2000/svg"
   xmlns="http://www.w3.org/2000/svg"
   height="400"
   width="398.64099"
   id="svg6"
   version="1.1"
   viewBox="0 0 398.64099 400">
  <metadata
     id="metadata12">
    <rdf:RDF>
      <cc:Work
         rdf:about="">
        <dc:format>image/svg+xml</dc:format>
        <dc:type
           rdf:resource="http://purl.org/dc/dcmitype/StillImage" />
        <dc:title></dc:title>
      </cc:Work>
    </rdf:RDF>
  </metadata>
  <defs
     id="defs10" />
  <path
     id="path2"
     d="m 101.126,140.407 c 0,-17.759 16.535,-32.165 16.535,-32.165 0,0 15.852,14.406 15.852,32.165 0,17.76 -15.852,32.166 -15.852,32.166 0,0 -16.535,-14.406 -16.535,-32.166 M 117.661,36.623 c 0,0 -40.094,35.354 -40.094,78.987 0,43.621 40.094,78.98 40.094,78.98 0,0 39.432,-35.359 39.432,-78.98 0,-43.633 -39.432,-78.987 -39.432,-78.987"
     fill="#ed1c24" />
  <path
     id="path4"
     d="M 199.011,147.487 V 308.701 H 162.029 V 230.518 L 117.89,272.111 72.654,230.518 V 398.562 H 36.028 V 147.487 l 81.862,75.061 z M 398.641,0 V 308.701 H 380.608 V 18.061 H 18.172 V 398.562 H 0 V 0 Z M 82.424,398.442 v -73.184 h 35.449 V 336.35 H 95.896 v 17.206 h 20.738 v 11.093 H 95.896 v 22.5 h 23.018 v 11.293 z m 90.701,0 c 0,0 0.93,-48.304 1.244,-63.44 l -11.819,63.44 h -12.542 l -12.126,-63.44 c 0,0 0.724,45.404 1.034,63.44 h -13.27 v -73.184 h 21.976 l 8.605,51.207 8.709,-51.207 h 21.667 v 73.184 z m 50.165,-55.358 c 0,-3.837 0,-9.119 -6.528,-9.119 -6.944,0 -6.944,5.597 -6.944,9.638 v 36.91 c 0,4.142 0.213,8.912 6.838,8.912 6.634,0 6.634,-5.078 6.634,-8.612 z m -26.951,-1.343 c 0,-10.881 4.877,-18.039 20.53,-18.039 12.228,0 20.006,5.39 20.006,16.794 v 42.4 c 0,12.845 -8.299,17.104 -20.113,17.104 -12.553,0 -20.423,-4.773 -20.423,-16.904 z m 63.751,13.474 h 7.046 c 4.668,0 6.219,-1.659 6.219,-6.944 v -6.53 c 0,-4.564 -1.551,-6.015 -6.219,-6.015 h -7.046 z m 13.47,-29.957 c 8.921,0 13.167,4.151 13.167,13.06 v 13.268 c 0,7.255 -2.175,10.577 -8.606,12.545 l 11.409,34.311 H 275.541 L 265.168,365.99 h -5.078 v 32.452 h -13.472 v -73.184 z m 22.701,73.184 v -73.184 h 13.37 v 73.184 z m 41.565,-54.631 -4.873,31.417 h 9.342 z m 7.678,54.631 -1.768,-11.919 h -12.439 l -1.967,11.919 h -13.475 l 14.192,-73.184 h 15.457 l 13.679,73.184 z m 19.796,0 v -73.184 h 13.475 v 62.094 h 19.796 v 11.09 z"
     fill="#231f20" />
</svg>
